<svg xmlns="http://www.w3.org/2000/svg" xml:space="preserve" version="1.1"
     viewBox="0 0 310.285 310.285" xmlns:xlink="http://www.w3.org/1999/xlink">
	<path fill="#008bc5" d="M264.845,45.441C235.542,16.139,196.583,0,155.143,0c-41.44,0-80.4,16.139-109.701,45.441
	C16.139,74.743,0,113.703,0,155.144c0,41.439,16.139,80.399,45.441,109.701c29.302,29.303,68.262,45.44,109.701,45.44
	c41.44,0,80.399-16.138,109.702-45.44c29.303-29.302,45.44-68.262,45.44-109.701C310.285,113.703,294.147,74.743,264.845,45.441z
	 M60.004,118.502c0-18.913,15.332-34.246,34.245-34.246c18.913,0,34.246,15.333,34.246,34.246c0,18.914-15.332,34.246-34.246,34.246
	C75.337,152.747,60.004,137.415,60.004,118.502z M225.72,227.916c-5.857,5.857-15.356,5.857-21.213,0
	c-13.186-13.186-30.717-20.447-49.364-20.447c-18.646,0-36.178,7.262-49.363,20.447c-2.929,2.929-6.768,4.394-10.606,4.394
	c-3.839,0-7.678-1.464-10.606-4.394c-5.858-5.857-5.858-15.354,0-21.213c18.852-18.852,43.916-29.234,70.576-29.234
	c26.66,0,51.725,10.382,70.577,29.234C231.578,212.561,231.578,222.059,225.72,227.916z M216.036,152.747
	c-18.913,0-34.246-15.332-34.246-34.246c0-18.913,15.332-34.246,34.246-34.246c18.913,0,34.245,15.333,34.245,34.246
	C250.281,137.415,234.949,152.747,216.036,152.747z"/>
</svg>
