<svg version="1.1" xmlns="http://www.w3.org/2000/svg" xmlns:xlink="http://www.w3.org/1999/xlink" xml:space="preserve"
x="0px" y="0px" viewBox="0 0 200000 200000">
 <defs>
  <style type="text/css">
   <![CDATA[
    .str0 {stroke:black;stroke-width:1000.4}
    .fil0 {fill:#E6E6E6;fill-rule:nonzero}
   ]]>
  </style>
 </defs>
   <polygon class="fil0 str0" points="168083,99999 107416,39303 84694,39303 137218,91856 31917,91856 31917,108143 137218,108143 84694,160695 107416,160695 "/>
   <path class="fil0 str0" d="M100000 185183c23524,0 44822,-9534 60236,-24949 15415,-15414 24949,-36711 24949,-60236 0,-23524 -9534,-44822 -24949,-60236 -15414,-15415 -36711,-24949 -60236,-24949 -23524,0 -44822,9534 -60236,24949 -15415,15414 -24949,36711 -24949,60236 0,23524 9534,44822 24949,60236 15414,15415 36711,24949 60236,24949zm70710 -14475c-18096,18098 -43096,29292 -70710,29292 -27613,0 -52614,-11193 -70710,-29292 -18098,-18096 -29292,-43096 -29292,-70710 0,-27613 11193,-52614 29292,-70710 18096,-18098 43096,-29292 70710,-29292 27613,0 52614,11193 70710,29292 18098,18096 29292,43096 29292,70710 0,27613 -11193,52614 -29292,70710z"/>
</svg>
