<?xml version="1.0" encoding="UTF-8"?>
<!DOCTYPE svg PUBLIC "-//W3C//DTD SVG 1.1//EN" "http://www.w3.org/Graphics/SVG/1.1/DTD/svg11.dtd">
<!-- Creator: CorelDRAW X6 -->
<svg xmlns="http://www.w3.org/2000/svg" xml:space="preserve" width="30px" height="30px" version="1.1" style="shape-rendering:geometricPrecision; text-rendering:geometricPrecision; image-rendering:optimizeQuality; fill-rule:evenodd; clip-rule:evenodd"
viewBox="0 0 30000 30000"
 xmlns:xlink="http://www.w3.org/1999/xlink">
 <defs>
  <style type="text/css">
   <![CDATA[
    .fil0 {fill:white}
    .fil1 {fill:black;fill-rule:nonzero}
   ]]>
  </style>
 </defs>
 <g id="Layer_x0020_1">
  <metadata id="CorelCorpID_0Corel-Layer"/>
  <path class="fil0" d="M15000 601c3976,0 7577,1612 10181,4218 2606,2604 4218,6206 4218,10181 0,3976 -1612,7576 -4218,10181 -2604,2604 -6206,4218 -10181,4218 -3976,0 -7576,-1612 -10181,-4218 -2604,-2606 -4218,-6206 -4218,-10181 0,-3976 1612,-7577 4218,-10181 2606,-2606 6206,-4218 10181,-4218zm8074 6325c-2067,-2066 -4922,-3344 -8074,-3344 -3152,0 -6007,1278 -8074,3344 -2065,2066 -3344,4922 -3344,8074 0,3152 1278,6007 3344,8074 2067,2066 4922,3344 8074,3344 3152,0 6008,-1279 8074,-3344 2066,-2067 3344,-4922 3344,-8074 0,-3152 -1278,-6007 -3344,-8074z"/>
  <path class="fil1" d="M15000 0c2028,0 3965,405 5735,1137 1835,761 3487,1874 4869,3256l1 1 1 1c1382,1382 2496,3033 3256,4869 732,1770 1137,3707 1137,5735 0,2028 -405,3965 -1137,5734 -761,1835 -1874,3487 -3256,4870l-1 1 -1 1c-1382,1381 -3034,2496 -4870,3256 -1769,732 -3706,1137 -5734,1137 -2028,0 -3965,-405 -5734,-1137 -1837,-761 -3488,-1876 -4871,-3257l-1 1c-1380,-1381 -2494,-3033 -3256,-4873 -732,-1769 -1137,-3705 -1137,-5733 0,-2028 405,-3965 1137,-5735 761,-1835 1874,-3487 3256,-4869l1 -1 1 -1c1383,-1382 3034,-2496 4870,-3256 1769,-732 3706,-1137 5734,-1137zm5280 2245c-1623,-672 -3406,-1043 -5280,-1043 -1873,0 -3656,371 -5278,1043 -1688,699 -3206,1724 -4478,2996l-2 2c-1272,1271 -2297,2790 -2995,4476 -673,1624 -1044,3407 -1044,5280 0,1872 371,3654 1043,5278 698,1684 1724,3203 2999,4478l0 2c1272,1272 2790,2297 4478,2996 1623,672 3405,1043 5278,1043 1872,0 3656,-371 5278,-1044 1688,-698 3207,-1723 4478,-2995l2 -2c1272,-1272 2297,-2790 2996,-4478 672,-1623 1043,-3405 1043,-5278 0,-1873 -371,-3657 -1043,-5280 -699,-1687 -1724,-3206 -2996,-4476l-2 -2c-1271,-1272 -2790,-2297 -4476,-2996zm2368 5105c-996,-998 -2186,-1801 -3508,-2348 -1273,-527 -2670,-819 -4140,-819 -1469,0 -2867,292 -4140,819 -1322,547 -2512,1350 -3508,2348l-2 2c-997,996 -1800,2186 -2348,3509 -527,1272 -819,2669 -819,4139 0,1469 292,2867 819,4140 547,1322 1350,2512 2348,3508l2 2c996,998 2186,1801 3508,2348 1273,527 2670,819 4140,819 1469,0 2867,-292 4139,-819 1323,-548 2513,-1351 3509,-2348l2 -2c998,-996 1801,-2186 2348,-3508 527,-1273 819,-2670 819,-4140 0,-1469 -292,-2867 -819,-4140 -547,-1322 -1350,-2512 -2348,-3508l-2 -2zm-3053 -3456c1470,608 2794,1501 3901,2608l1 1 1 1c1107,1107 2000,2431 2608,3901 588,1419 912,2970 912,4594 0,1624 -324,3176 -912,4594 -608,1470 -1501,2794 -2608,3901l-1 1 -1 1c-1107,1107 -2430,1998 -3901,2608 -1419,588 -2970,912 -4594,912 -1624,0 -3176,-324 -4594,-912 -1470,-608 -2794,-1501 -3901,-2608l-1 -1 -1 -1c-1107,-1107 -2000,-2431 -2608,-3901 -588,-1419 -912,-2970 -912,-4594 0,-1624 324,-3176 912,-4594 609,-1472 1501,-2794 2608,-3901l1 -1 1 -1c1107,-1107 2431,-2000 3901,-2608 1419,-588 2970,-912 4594,-912 1624,0 3176,324 4594,912z"/>
  <path class="fil0" d="M12821 9495c-549,-612 -500,-1553 110,-2102 612,-549 1552,-500 2102,111l5841 6501c515,573 503,1439 -6,1996l-5835 6496c-550,611 -1492,660 -2102,110 -611,-549 -660,-1492 -110,-2102l4945 -5505 -4945 -5505 0 1z"/>
  <path class="fil1" d="M12376 9895c-386,-428 -561,-972 -534,-1506 28,-534 260,-1058 687,-1443 429,-385 973,-560 1507,-531 534,28 1057,260 1443,687l5841 6501c359,399 535,901 534,1401 -1,503 -184,1005 -542,1398l2 1 -5835 6494 -2 0 1 1c-385,428 -908,659 -1443,687 -533,28 -1076,-146 -1505,-531l0 -2 -1 -1 0 -1 -1 1c-428,-385 -659,-908 -686,-1441 -28,-533 146,-1076 531,-1504l2 -2 4584 -5105 -4185 -4659 -399 -444zm664 -1444c-11,216 56,436 203,613l25 28 4945 5505 360 402 -360 402 -4945 5505 -2 2c-163,183 -239,413 -227,640 12,226 110,446 292,611l0 2 2 2 1 -1c182,163 413,237 641,226 226,-12 448,-110 612,-293l1 0 -1 -1 5835 -6494 5 -2c152,-167 230,-379 230,-594 1,-213 -74,-426 -229,-598l-5841 -6501c-164,-183 -386,-281 -612,-294 -228,-12 -459,63 -643,227 -182,164 -281,387 -293,613z"/>
 </g>
</svg>
