<svg xmlns="http://www.w3.org/2000/svg" xmlns:xlink="http://www.w3.org/1999/xlink" version="1.1"
	 viewBox="0 0 236 236" style="enable-background:new 0 0 236 236;" xml:space="preserve">
		<path fill="#929292" d="M47,162c-31.4-18.6-46-44-46-44s36-63,117-63c11.7,0,22.5,1.3,32.4,3.6l-7.6,7.6
			c-7.7-1.4-15.9-2.2-24.8-2.2c-72,0-106.2,54-106.2,54s13.6,21.5,41.8,37.4L47,162L47,162L47,162z M85.6,177.4
			c9.9,2.3,20.7,3.6,32.4,3.6c81,0,117-63,117-63s-14.6-25.5-46-44l-6.6,6.6c28.2,15.9,41.8,37.4,41.8,37.4S190,172,118,172
			c-8.8,0-17.1-0.8-24.8-2.2L85.6,177.4L85.6,177.4L85.6,177.4z M153.1,109.9c0.6,2.6,0.9,5.3,0.9,8.1c0,19.9-16.1,36-36,36
			c-2.8,0-5.5-0.3-8.1-0.9l8.1-8.1c6.9,0,13.8-2.6,19.1-7.9s7.9-12.2,7.9-19.1L153.1,109.9L153.1,109.9L153.1,109.9z M126.1,82.9
			c-2.6-0.6-5.3-0.9-8.1-0.9c-19.9,0-36,16.1-36,36c0,2.8,0.3,5.5,0.9,8.1L91,118c0-6.9,2.6-13.8,7.9-19.1
			c5.3-5.3,12.2-7.9,19.1-7.9L126.1,82.9L126.1,82.9L126.1,82.9z M190,37L37,190l9,9L199,46L190,37L190,37z"/>
</svg>
