<svg xmlns="http://www.w3.org/2000/svg" xml:space="preserve" version="1.1"
     viewBox="0 0 22000 22000" xmlns:xlink="http://www.w3.org/1999/xlink">
  <path fill="#fff" d="M20017 9011l-9017 -5125 -9017 5125 3089 0 150 0 0 150 0 8975 11557 0 0 -8975 0 -150 150 0 3089 0zm-10548 875l1284 0 150 0 0 150 0 5385 0 150 -150 0 -1284 0 -150 0 0 -150 0 -5385 0 -150 150 0zm1778 0l1284 0 150 0 0 150 0 5385 0 150 -150 0 -1284 0 -150 0 0 -150 0 -5385 0 -150 150 0zm-247 -9888c3038,0 5789,1232 7780,3222 1991,1991 3222,4742 3222,7780 0,3038 -1232,5789 -3222,7780 -1991,1991 -4742,3222 -7780,3222 -3038,0 -5789,-1232 -7780,-3222 -1991,-1991 -3222,-4742 -3222,-7780 0,-3038 1232,-5789 3222,-7780 1991,-1991 4742,-3222 7780,-3222z"/>
</svg>
