<?xml version="1.0" encoding="UTF-8" standalone="no"?>
<svg
   xmlns:dc="http://purl.org/dc/elements/1.1/"
   xmlns:cc="http://creativecommons.org/ns#"
   xmlns:rdf="http://www.w3.org/1999/02/22-rdf-syntax-ns#"
   xmlns:svg="http://www.w3.org/2000/svg"
   xmlns="http://www.w3.org/2000/svg"
   viewBox="0 0 377.94666 377.94666"
   height="377.94666"
   width="377.94666"
   xml:space="preserve"
   id="svg2"
   version="1.1"><metadata
     id="metadata8"><rdf:RDF><cc:Work
         rdf:about=""><dc:format>image/svg+xml</dc:format><dc:type
           rdf:resource="http://purl.org/dc/dcmitype/StillImage" /></cc:Work></rdf:RDF></metadata><defs
     id="defs6"><clipPath
       id="clipPath18"
       clipPathUnits="userSpaceOnUse"><path
         id="path16"
         d="M 0,283.46 H 283.46 V 0 H 0 Z" /></clipPath></defs><g
     transform="matrix(1.3333333,0,0,-1.3333333,0,377.94667)"
     id="g10"><g
       id="g12"><g
         clip-path="url(#clipPath18)"
         id="g14"><g
           transform="translate(160.793,186.2808)"
           id="g20"><path
             id="path22"
             style="fill:#ffffff;fill-opacity:1;fill-rule:nonzero;stroke:none"
             d="m 0,0 v 39.505 c 0,1.833 -1.488,3.324 -3.322,3.324 -1.834,0 -3.324,-1.491 -3.324,-3.324 V 1.81 C -6.646,0.812 -7.457,0 -8.457,0 h -0.822 c -1.002,0 -1.813,0.812 -1.813,1.81 v 42.445 c 0,1.837 -1.488,3.322 -3.324,3.322 -1.834,0 -3.322,-1.485 -3.322,-3.322 V 1.81 C -17.738,0.812 -18.549,0 -19.549,0 h -0.606 c -1.001,0 -1.81,0.812 -1.81,1.81 v 34.58 c 0,1.835 -1.489,3.319 -3.324,3.319 -1.834,0 -3.322,-1.484 -3.322,-3.319 V 1.81 c 0,-0.998 -0.811,-1.81 -1.812,-1.81 -1.001,0 -1.813,0.812 -1.813,1.81 v 25.371 c 0,1.837 -1.486,3.325 -3.32,3.325 -1.835,0 -3.324,-1.488 -3.324,-3.325 V 0 -39.708 c 0,0 28.054,-9.648 36.665,7.571 8.61,17.221 10.836,21.527 19.891,20.634 -5.196,5.94 -13.805,12.322 -25.981,4.455 -12.169,-7.868 -20.929,-6.09 -20.929,-6.09 0,0 9.649,1.19 19.892,8.611 C -3.699,-0.815 0,0 0,0" /></g><g
           transform="translate(101.3413,86.9033)"
           id="g24"><path
             id="path26"
             style="fill:#ffffff;fill-opacity:1;fill-rule:nonzero;stroke:none"
             d="m 0,0 v 8.334 h -0.873 v 1.154 h 4.18 c 0.873,0 1.6,-0.269 2.149,-0.822 C 6.009,8.133 6.29,7.418 6.29,6.518 6.29,5.617 6.009,4.895 5.456,4.342 4.907,3.791 4.18,3.506 3.307,3.506 H 1.345 V 0 Z m 1.345,4.664 h 1.747 c 1.129,0 1.815,0.711 1.815,1.854 0,1.13 -0.673,1.816 -1.802,1.816 h -1.76 z" /></g><g
           transform="translate(107.9004,86.9033)"
           id="g28"><path
             id="path30"
             style="fill:#ffffff;fill-opacity:1;fill-rule:nonzero;stroke:none"
             d="m 0,0 v 1.156 h 0.188 c 0.228,0 0.376,0.092 0.444,0.297 l 2.971,8.035 h 1.41 L 7.985,1.453 C 8.05,1.248 8.198,1.156 8.426,1.156 h 0.19 V 0 H 7.876 C 7.218,0 6.989,0.146 6.76,0.783 L 6.048,2.73 H 2.567 L 1.856,0.783 C 1.627,0.146 1.399,0 0.74,0 Z M 2.891,3.859 H 5.726 L 4.691,6.748 4.314,8.076 H 4.287 C 4.153,7.527 4.031,7.082 3.924,6.748 Z" /></g><g
           transform="translate(117.1553,87.2139)"
           id="g32"><path
             id="path34"
             style="fill:#ffffff;fill-opacity:1;fill-rule:nonzero;stroke:none"
             d="m 0,0 c 0,0.604 0.242,0.846 0.847,0.846 h 0.215 c 1.184,1.666 1.466,3.761 1.466,6.383 v 0.794 h -0.86 v 1.155 h 5.577 c 0.604,0 0.86,-0.254 0.86,-0.86 V 0.846 H 8.401 C 9.005,0.846 9.248,0.604 9.248,0 V -2.191 H 8.01 v 1.586 c 0,0.199 -0.093,0.294 -0.281,0.294 h -6.21 c -0.188,0 -0.283,-0.095 -0.283,-0.294 V -2.191 H 0 Z M 6.774,0.846 V 7.729 C 6.774,7.93 6.681,8.023 6.48,8.023 H 3.818 V 7.15 C 3.818,4.312 3.362,2.217 2.46,0.846 Z" /></g><g
           transform="translate(128.0151,86.9033)"
           id="g36"><path
             id="path38"
             style="fill:#ffffff;fill-opacity:1;fill-rule:nonzero;stroke:none"
             d="M 0,0 V 8.035 C 0,8.24 -0.093,8.334 -0.294,8.334 h -0.579 v 1.154 h 1.357 c 0.605,0 0.861,-0.254 0.861,-0.859 V 3.428 L 1.264,2.068 H 1.29 c 0.338,0.58 0.619,1.037 0.847,1.373 L 6.276,9.488 H 7.594 V 1.453 c 0,-0.205 0.094,-0.297 0.297,-0.297 H 8.467 L 8.467,0 H 7.123 C 6.519,0 6.249,0.256 6.249,0.861 V 6.076 L 6.331,7.461 H 6.304 C 5.996,6.881 5.727,6.412 5.498,6.076 L 1.331,0 Z" /></g><g
           transform="translate(140.7837,86.9033)"
           id="g40"><path
             id="path42"
             style="fill:#ffffff;fill-opacity:1;fill-rule:nonzero;stroke:none"
             d="m 0,0 2.529,4.301 c 0.16,0.283 0.402,0.511 0.523,0.564 l 0.08,0.057 V 4.943 C 2.958,5.012 2.785,5.201 2.607,5.539 L 1.236,8.023 C 1.13,8.225 0.9,8.334 0.565,8.334 H 0.296 v 1.154 h 0.673 c 0.752,0 0.967,-0.121 1.29,-0.711 l 1.6,-2.933 C 4.033,5.539 4.248,5.471 4.679,5.471 H 5.201 V 9.488 H 6.492 V 5.471 H 6.99 c 0.416,0 0.699,0.121 0.845,0.373 l 1.6,2.933 c 0.324,0.59 0.537,0.711 1.291,0.711 h 0.672 V 8.334 h -0.27 c -0.336,0 -0.562,-0.109 -0.685,-0.311 L 9.085,5.539 C 8.923,5.254 8.736,5.039 8.644,4.986 L 8.562,4.943 V 4.922 C 8.777,4.826 8.978,4.611 9.154,4.301 L 11.693,0 H 10.214 L 7.904,3.99 C 7.755,4.248 7.501,4.381 7.136,4.381 H 6.492 V 0 H 5.201 V 4.381 H 4.556 C 4.195,4.381 3.939,4.248 3.791,3.99 L 1.479,0 Z" /></g><g
           transform="translate(154.252,86.9033)"
           id="g44"><path
             id="path46"
             style="fill:#ffffff;fill-opacity:1;fill-rule:nonzero;stroke:none"
             d="M 0,0 V 8.035 C 0,8.24 -0.094,8.334 -0.295,8.334 h -0.58 v 1.154 h 1.359 c 0.606,0 0.858,-0.254 0.858,-0.859 V 3.428 L 1.264,2.068 h 0.025 c 0.338,0.58 0.617,1.037 0.848,1.373 L 6.275,9.488 H 7.592 V 1.453 c 0,-0.205 0.095,-0.297 0.297,-0.297 H 8.467 V 0 H 7.123 C 6.518,0 6.25,0.256 6.25,0.861 V 6.076 L 6.328,7.461 H 6.303 C 5.996,6.881 5.727,6.412 5.496,6.076 L 1.332,0 Z" /></g><g
           transform="translate(164.3711,88.9463)"
           id="g48"><path
             id="path50"
             style="fill:#ffffff;fill-opacity:1;fill-rule:nonzero;stroke:none"
             d="m 0,0 c 0.484,-0.523 1.332,-1.008 2.191,-1.008 1.116,0 1.963,0.66 1.963,1.692 0,0.984 -0.752,1.589 -1.761,1.589 H 1.264 v 1.102 h 0.968 c 0.913,0 1.639,0.646 1.639,1.559 0,0.873 -0.564,1.478 -1.627,1.478 -0.816,0 -1.49,-0.404 -1.49,-0.9 V 5.121 h -1.238 v 0.738 c 0,0.391 0.164,0.727 0.47,1.01 0.647,0.549 1.494,0.738 2.364,0.738 1.832,0 2.879,-0.98 2.879,-2.474 0,-0.969 -0.458,-1.68 -1.37,-2.149 V 2.957 c 1.034,-0.283 1.68,-1.184 1.68,-2.326 0,-0.832 -0.31,-1.518 -0.93,-2.043 -0.601,-0.522 -1.412,-0.795 -2.39,-0.795 -1.291,0 -2.35,0.553 -3.012,1.264 z" /></g><g
           transform="translate(171.6973,86.9033)"
           id="g52"><path
             id="path54"
             style="fill:#ffffff;fill-opacity:1;fill-rule:nonzero;stroke:none"
             d="M 0,0 V 8.035 C 0,8.24 -0.092,8.334 -0.297,8.334 h -0.578 v 1.154 h 1.357 c 0.606,0 0.864,-0.254 0.864,-0.859 V 5.311 H 6.17 v 3.318 c 0,0.605 0.267,0.859 0.873,0.859 H 8.387 V 8.334 H 7.809 C 7.607,8.334 7.514,8.24 7.514,8.035 V 0 H 6.17 V 4.168 H 1.346 V 0 Z" /></g><g
           transform="translate(182.0469,86.9033)"
           id="g56"><path
             id="path58"
             style="fill:#ffffff;fill-opacity:1;fill-rule:nonzero;stroke:none"
             d="M 0,0 V 8.035 C 0,8.24 -0.094,8.334 -0.295,8.334 h -0.578 v 1.154 h 1.357 c 0.602,0 0.86,-0.254 0.86,-0.859 V 3.428 L 1.26,2.068 h 0.031 c 0.336,0.58 0.617,1.037 0.844,1.373 L 6.277,9.488 H 7.594 V 1.453 c 0,-0.205 0.093,-0.297 0.295,-0.297 H 8.467 V 0 H 7.121 C 6.52,0 6.246,0.256 6.246,0.861 V 6.076 L 6.33,7.461 H 6.303 C 5.994,6.881 5.725,6.412 5.498,6.076 L 1.328,0 Z" /></g></g></g><text
       id="text62"
       style="font-variant:normal;font-weight:bold;font-stretch:normal;font-size:27.41600037px;font-family:HelveticaNeueCyr;-inkscape-font-specification:HelveticaNeueCyr-Bold;writing-mode:lr-tb;fill:#ffffff;fill-opacity:1;fill-rule:nonzero;stroke:none"
       transform="matrix(1,0,0,-1,82.8911,108.7021)"><tspan
         id="tspan60"
         y="0"
         x="0 18.779961 39.095215 56.367294 64.455017 79.177406 97.957367">ADVITAM</tspan></text>
</g></svg>