<svg xmlns="http://www.w3.org/2000/svg" xml:space="preserve" version="1.1"
     viewBox="0 0 22000 22000" xmlns:xlink="http://www.w3.org/1999/xlink">
  <path fill="#fff" fill-rule="evenodd" d="M11000 148c5994,0 10852,4859 10852,10852 0,5994 -4859,10852 -10852,10852 -5994,0 -10852,-4859 -10852,-10852 0,-5994 4859,-10852 10852,-10852zm901 13981c-370,429 -785,773 -1245,1032 -458,260 -919,388 -1379,388 -507,0 -1000,-148 -1481,-443 -478,-298 -866,-752 -1166,-1368 -300,-615 -449,-1292 -449,-2027 0,-907 233,-1813 697,-2723 464,-907 1041,-1589 1729,-2047 688,-455 1359,-682 2006,-682 496,0 968,128 1420,388 449,260 837,656 1161,1184l300 -1327 1522 0 -1231 5739c-172,799 -256,1239 -256,1324 0,155 58,289 175,400 117,111 259,166 423,166 303,0 700,-172 1190,-519 650,-455 1166,-1065 1545,-1831 379,-764 569,-1551 569,-2365 0,-951 -245,-1837 -732,-2659 -487,-825 -1216,-1484 -2184,-1980 -965,-493 -2035,-741 -3205,-741 -1335,0 -2557,312 -3659,933 -1105,624 -1962,1516 -2569,2680 -609,1163 -913,2411 -913,3744 0,1394 303,2593 910,3598 609,1009 1487,1752 2636,2233 1149,481 2420,720 3817,720 1496,0 2747,-251 3756,-756 1009,-502 1764,-1114 2266,-1834l1539 0c-291,598 -790,1210 -1496,1831 -706,621 -1546,1114 -2520,1476 -974,361 -2149,542 -3519,542 -1266,0 -2432,-163 -3499,-487 -1070,-324 -1980,-811 -2732,-1461 -752,-653 -1318,-1403 -1700,-2248 -478,-1076 -717,-2237 -717,-3481 0,-1385 286,-2709 854,-3966 697,-1540 1685,-2720 2966,-3540 1280,-820 2831,-1228 4657,-1228 1414,0 2685,289 3811,866 1126,578 2015,1438 2662,2581 554,983 831,2053 831,3207 0,1650 -580,3114 -1741,4394 -1038,1149 -2169,1723 -3400,1723 -393,0 -708,-61 -950,-181 -242,-120 -420,-292 -533,-516 -76,-143 -128,-391 -163,-741zm-4146 -2309c0,781 187,1388 557,1819 370,435 793,650 1274,650 318,0 653,-96 1009,-286 353,-193 691,-475 1012,-852 324,-376 586,-854 790,-1431 207,-578 309,-1158 309,-1741 0,-773 -193,-1376 -578,-1802 -385,-429 -854,-642 -1405,-642 -365,0 -709,93 -1032,277 -321,187 -633,484 -936,895 -300,408 -545,907 -726,1496 -184,586 -274,1126 -274,1616z"/>
</svg>
