<svg xmlns="http://www.w3.org/2000/svg" xml:space="preserve" version="1.1"
     viewBox="0 0 30000 30000" xmlns:xlink="http://www.w3.org/1999/xlink">
  <path fill="#55ABDF" d="M15000 511c4001,0 7624,1622 10245,4244 2622,2621 4244,6244 4244,10245 0,4001 -1622,7623 -4244,10245 -2621,2621 -6245,4244 -10245,4244 -4001,0 -7623,-1622 -10245,-4244 -2621,-2622 -4244,-6244 -4244,-10245 0,-4000 1622,-7624 4244,-10245 2622,-2622 6244,-4244 10245,-4244zm8124 6365c-2079,-2079 -4952,-3365 -8124,-3365 -3172,0 -6045,1286 -8124,3365 -2078,2078 -3365,4952 -3365,8124 0,3172 1286,6045 3365,8124 2079,2079 4952,3365 8124,3365 3172,0 6046,-1287 8124,-3365 2079,-2079 3365,-4952 3365,-8124 0,-3172 -1286,-6045 -3365,-8124z"/>
  <path fill="#55ABDF" class="fil0" d="M12807 9460c-553,-615 -503,-1562 111,-2115 615,-553 1562,-503 2115,111l5877 6542c519,577 507,1448 -5,2009l-5872 6536c-553,615 -1501,665 -2115,111 -615,-553 -665,-1501 -111,-2115l4977 -5540 -4977 -5540z"/>
</svg>
