<svg xmlns="http://www.w3.org/2000/svg" xml:space="preserve" version="1.1"
     viewBox="0 0 28000 28000" xmlns:xlink="http://www.w3.org/1999/xlink">
  <path fill="#fff" d="M14000 11c3863,0 7361,1566 9892,4098 2531,2531 4098,6029 4098,9892 0,3863 -1566,7360 -4098,9892 -2531,2531 -6029,4097 -9892,4097 -3863,0 -7360,-1566 -9892,-4097 -2531,-2531 -4097,-6029 -4097,-9892 0,-3863 1566,-7361 4097,-9892 2531,-2531 6029,-4098 9892,-4098zm8478 5512c-2169,-2169 -5167,-3512 -8478,-3512 -3310,0 -6308,1342 -8478,3512 -2169,2169 -3511,5167 -3511,8478 0,3310 1342,6308 3511,8478 2169,2169 5167,3511 8478,3511 3310,0 6309,-1343 8478,-3511 2170,-2170 3512,-5167 3512,-8478 0,-3311 -1343,-6308 -3512,-8478z"/>
  <path fill="#fff" d="M12178 8126c-369,-410 -336,-1041 74,-1410 410,-369 1041,-336 1410,74l5877 6542c347,386 338,969 -6,1343l-5870 6535c-369,410 -1000,443 -1410,74 -410,-369 -443,-1000 -74,-1410l5277 -5874 -5277 -5874z"/>
</svg>
