<svg xmlns="http://www.w3.org/2000/svg" xml:space="preserve" version="1.1"
     viewBox="0 0 512000 512000" xmlns:xlink="http://www.w3.org/1999/xlink">
  <path fill="#008bc5" d="M256000 96000c-111659,0 -208441,65021 -256000,160000 47559,94979 144341,160000 256000,160000 111656,0 208439,-65021 256000,-160000 -47559,-94979 -144344,-160000 -256000,-160000zm126225 84852c30082,19187 55572,44887 74719,75148 -19146,30261 -44639,55961 -74719,75148 -37797,24109 -81446,36852 -126225,36852 -44780,0 -88428,-12743 -126225,-36852 -30080,-19188 -55570,-44888 -74717,-75148 19146,-30262 44637,-55962 74717,-75148 1959,-1250 3938,-2461 5929,-3650 -4979,13664 -7704,28411 -7704,43798 0,70691 57308,128000 128000,128000 70691,0 128000,-57309 128000,-128000 0,-15387 -2725,-30134 -7703,-43799 1988,1189 3969,2401 5928,3651zm-126225 24148c0,26510 -21490,48000 -48000,48000 -26510,0 -48000,-21490 -48000,-48000 0,-26510 21490,-48000 48000,-48000 26510,0 48000,21490 48000,48000z"/>
</svg>
