<svg version="1.1" xmlns="http://www.w3.org/2000/svg" xmlns:xlink="http://www.w3.org/1999/xlink" xml:space="preserve"
 style="shape-rendering:geometricPrecision; text-rendering:geometricPrecision; image-rendering:optimizeQuality; fill-rule:evenodd; clip-rule:evenodd"
 viewBox="0 0 200000 200000">
  <path fill="#3F454C" d="M200000 100000c-5973,10832 -13341,20032 -22023,27639 -20908,18519 -46874,27797 -77858,27797 -31023,0 -56990,-9279 -77977,-27797 -8682,-7608 -16089,-16807 -22142,-27639 6053,-10793 13460,-20032 22142,-27718 20987,-18478 46954,-27718 77977,-27718 30984,0 56950,9240 77858,27718 8682,7687 16050,16925 22023,27718zm-19115 0c-3783,-6691 -8363,-12664 -13780,-17921 -12983,-12585 -29032,-20471 -48148,-23656 8323,3585 15014,9040 20072,16448 5137,7606 7685,16009 7685,25169 0,9119 -2509,17404 -7526,24851 -5019,7487 -11589,13023 -19793,16687 28116,-4819 48586,-18678 61490,-41577zm-43967 119c0,-9957 -3625,-18478 -10832,-25568 -7210,-7089 -15891,-10634 -26086,-10634 -5336,0 -10434,1076 -15213,3266l-3863 -8761c-28157,4819 -48786,18678 -61809,41577 3783,6691 8323,12664 13661,17881 12902,12506 28793,20431 47710,23697 -8164,-3585 -14736,-9121 -19714,-16567 -4977,-7487 -7486,-15770 -7486,-24851 0,-5536 996,-10912 2947,-16129l9398 2947c-1713,4261 -2549,8642 -2549,13182 0,10036 3625,18559 10832,25608 7210,7049 15931,10553 26086,10553 10155,0 18877,-3504 26086,-10553 7207,-7049 10832,-15612 10832,-25648zm-9080 0c0,7527 -2708,13978 -8164,19315 -5457,5376 -12027,8046 -19674,8046 -7726,0 -14297,-2669 -19714,-8046 -5415,-5376 -8124,-11828 -8124,-19355 0,-3345 598,-6571 1752,-9677l28356 12943 -13421 -28276c3504,-1553 7208,-2309 11072,-2309 7685,0 14257,2668 19713,8045 5456,5336 8204,11787 8204,19315z"/>
</svg>
