<svg version="1.1" xmlns="http://www.w3.org/2000/svg" xmlns:xlink="http://www.w3.org/1999/xlink"
	 viewBox="0 0 236 236" style="enable-background:new 0 0 236 236;" xml:space="preserve">
<path fill ="#929292" d="M118,54C35.7,54-0.9,118-0.9,118s36.6,64,118.9,64s118.9-64,118.9-64S200.3,54,118,54z M118,172.9
	C44.9,172.9,10.1,118,10.1,118S44.9,63.1,118,63.1S225.9,118,225.9,118S191.1,172.9,118,172.9z"/>
<path fill ="#929292" d="M118,81.4c-20.2,0-36.6,16.4-36.6,36.6s16.4,36.6,36.6,36.6s36.6-16.4,36.6-36.6S138.2,81.4,118,81.4z
	 M118,145.4c-15.1,0-27.4-12.3-27.4-27.4s12.3-27.4,27.4-27.4s27.4,12.3,27.4,27.4S133.1,145.4,118,145.4z"/>
</svg>
