<svg xmlns="http://www.w3.org/2000/svg" xml:space="preserve" version="1.1"
     viewBox="0 0 22000 22000" xmlns:xlink="http://www.w3.org/1999/xlink">
  <path fill="#039" d="M11000 148c5994,0 10852,4859 10852,10852 0,5994 -4859,10852 -10852,10852 -5994,0 -10852,-4859 -10852,-10852 0,-5994 4859,-10852 10852,-10852zm-7484 10114l376 0 376 0 1245 -116c328,-116 550,-367 666,-753 -946,135 -1998,203 -3156,203 -463,0 -946,-67 -1448,-203 174,430 333,685 478,757 145,72 517,111 1115,111l348 0zm16907 -869c-521,135 -1081,203 -1679,203l-347 0 -1216 0 -1331 -174c116,400 328,637 637,704 251,92 753,135 1506,135l319 0 406 0c386,0 666,-10 839,-29 174,-19 323,-53 449,-111 126,-53 265,-299 420,-729zm-12102 -1877l463 -58 1331 -179 869 0 840 0 1361 179 463 58 -492 1211 -2172 -116 -2171 116 -492 -1211zm2693 2080c830,0 1506,270 2026,811 521,541 782,1206 782,1998 0,830 -275,1501 -825,2012 -550,511 -1211,767 -1983,767 -830,0 -1506,-270 -2027,-811 -521,-541 -781,-1197 -781,-1969 0,-830 270,-1506 811,-2026 541,-521 1206,-782 1998,-782zm5646 7614l434 0c135,-116 202,-704 202,-1771 -270,-815 -531,-1530 -781,-2152l-608 -1597 -290 -753 -261 -584 -405 -492 -839 -960c-39,-58 -58,-193 -58,-405l58 -898c521,116 883,256 1085,420 203,164 372,439 507,825 714,154 1718,231 3011,231l724 0 926 -87c-116,-1168 -338,-1945 -666,-2331 -328,-449 -994,-787 -1998,-1023 -2162,-565 -4401,-844 -6717,-844 -1641,0 -3194,135 -4661,405 -1139,213 -1993,410 -2562,594 -569,183 -989,381 -1259,594 -502,424 -811,1283 -926,2576l753 116 897 0 1708 -116 1332 -154c212,-420 410,-704 593,-859 183,-155 507,-270 970,-348l87 840c-19,309 -116,559 -290,753l-1013 1187 -550 1303 -781 1998c-116,231 -328,811 -637,1737l58 1178c19,135 58,294 116,473 0,39 19,87 58,144l434 0 11349 0z"/>
</svg>
