<svg xmlns="http://www.w3.org/2000/svg" xml:space="preserve" version="1.1"
     viewBox="0 0 24000 27000" xmlns:xlink="http://www.w3.org/1999/xlink">
  <path fill="#fff" d="M12000 2385c3273,0 6236,1327 8381,3471 2144,2145 3471,5108 3471,8381 0,3273 -1327,6236 -3472,8381 -2144,2144 -5108,3471 -8381,3471 -3273,0 -6236,-1327 -8381,-3471 -2145,-2144 -3472,-5108 -3472,-8381 0,-3273 1327,-6236 3471,-8381 2145,-2144 5108,-3471 8381,-3471zm6967 4885c-1783,-1782 -4246,-2885 -6967,-2885 -2720,0 -5184,1103 -6967,2885 -1782,1783 -2885,4246 -2885,6967 0,2720 1103,5184 2886,6967 1782,1782 4246,2885 6967,2885 2720,0 5184,-1103 6967,-2885 1783,-1782 2886,-4246 2886,-6967 0,-2720 -1103,-5184 -2885,-6967z"/>
  <polygon fill="#fff" points="9218,10369 11915,13497 16140,7341 17789,8467 12830,15692 12097,16761 11252,15781 7710,11673 "/>
  <path fill="#fff" d="M7183 24055l-4250 -3542 -2975 6375 7225 -2833zm4817 -23943c1760,0 3187,825 3187,1842 0,1017 -1427,1842 -3187,1842 -1760,0 -3187,-825 -3187,-1842 0,-1017 1427,-1842 3187,-1842zm4817 23943l4250 -3542 2975 6375 -7225 -2833z"/>
  <path fill="#fff" fill-rule="nonzero" d="M6893 24008l-3906 -3256 -2735 5860 6641 -2604zm-3864 -3610l4250 3542 194 162 -236 93 -7225 2833 -348 136 158 -339 2975 -6375 82 -176 149 124zm8971 -20436c906,0 1731,215 2329,560 623,360 1009,866 1009,1432 0,566 -386,1072 -1009,1432 -598,345 -1422,560 -2329,560 -906,0 -1731,-215 -2329,-560 -623,-360 -1009,-866 -1009,-1432 0,-566 386,-1072 1009,-1432 598,-345 1422,-560 2329,-560zm2178 819c-554,-320 -1325,-519 -2178,-519 -853,0 -1624,199 -2178,519 -531,306 -859,722 -859,1173 0,451 328,867 859,1173 554,320 1325,519 2178,519 853,0 1624,-199 2178,-519 531,-306 859,-722 859,-1173 0,-451 -328,-867 -859,-1173zm2543 23159l4250 -3542 149 -124 82 176 2975 6375 158 339 -348 -136 -7225 -2833 -236 -93 194 -162zm4292 -3187l-3906 3256 6641 2604 -2735 -5860z"/>
</svg>
