<svg version="1.1" xmlns="http://www.w3.org/2000/svg" xmlns:xlink="http://www.w3.org/1999/xlink" xml:space="preserve"
     viewBox="0 0 2000 2000">
     viewBox="0 0 2000 2000">
  <rect fill="#54769B" x="0" y="0" width="2000" height="2000"/>
  <path fill="#fff" d="M959 1265c38,0 38,-55 38,-77 0,-38 38,-77 77,-77 38,0 104,66 153,115 38,38 38,38 77,38 38,0 115,0 115,0 0,0 77,-3 77,-77 0,-24 -26,-65 -115,-153 -77,-77 -116,-37 0,-192 71,-94 122,-179 113,-204 -8,-23 -205,-61 -228,-26 -77,115 -91,143 -115,192 -38,77 -42,115 -77,115 -35,0 -38,-74 -38,-115 0,-127 18,-216 -38,-230 0,0 -77,0 -115,0 -62,0 -115,38 -115,38 0,0 -48,37 -38,38 11,2 77,-16 77,38 0,38 0,77 0,77 0,0 0,153 -38,153 -38,0 -115,-153 -192,-268 -30,-45 -38,-38 -77,-38 -41,0 -77,2 -115,2 -38,0 -43,24 -38,37 77,192 132,312 277,463 134,139 223,146 297,150 19,1 0,0 38,0z"/>
</svg>